<svg id="Layer_1" data-name="Layer 1" xmlns="http://www.w3.org/2000/svg" xmlns:xlink="http://www.w3.org/1999/xlink" viewBox="0 0 473 651"><defs><style>.cls-1{fill:none;}.cls-2{fill:#fff;}.cls-3{fill:red;}.cls-4{clip-path:url(#clip-path);}</style><clipPath id="clip-path" transform="translate(-175 -156)"><path class="cls-1" d="M0,0Z"/></clipPath></defs><title>dlearn</title><path class="cls-2" d="M0,0" transform="translate(-175 -156)"/><path class="cls-3" d="M0,0Z" transform="translate(-175 -156)"/><g class="cls-4"><g id="aaww9x.tif"><path class="cls-2" d="M0,0ZM0,0ZM0,0ZM0,0ZM0,0ZM0,0ZM0,0ZM0,0Z" transform="translate(-175 -156)"/><path d="M0,0Z" transform="translate(-175 -156)"/><path d="M0,0Z" transform="translate(-175 -156)"/><path d="M0,0Z" transform="translate(-175 -156)"/><path d="M0,0Z" transform="translate(-175 -156)"/><path d="M0,0Z" transform="translate(-175 -156)"/><path d="M0,0Z" transform="translate(-175 -156)"/><path d="M0,0Z" transform="translate(-175 -156)"/><path d="M0,0Z" transform="translate(-175 -156)"/><path d="M0,0Z" transform="translate(-175 -156)"/><path d="M0,0Z" transform="translate(-175 -156)"/><path d="M0,0Z" transform="translate(-175 -156)"/><path class="cls-2" d="M0,0Z" transform="translate(-175 -156)"/><path class="cls-2" d="M0,0Z" transform="translate(-175 -156)"/><path class="cls-2" d="M0,0Z" transform="translate(-175 -156)"/><path class="cls-2" d="M0,0Z" transform="translate(-175 -156)"/><path class="cls-2" d="M0,0Z" transform="translate(-175 -156)"/><path class="cls-2" d="M0,0Z" transform="translate(-175 -156)"/><path class="cls-2" d="M0,0Z" transform="translate(-175 -156)"/><path class="cls-2" d="M0,0Z" transform="translate(-175 -156)"/><path class="cls-2" d="M0,0Z" transform="translate(-175 -156)"/><path class="cls-2" d="M0,0Z" transform="translate(-175 -156)"/><path class="cls-2" d="M0,0Z" transform="translate(-175 -156)"/><path class="cls-2" d="M0,0Z" transform="translate(-175 -156)"/></g></g><path d="M0,0ZM0,0ZM0,0ZM0,0ZM0,0ZM0,0ZM0,0ZM0,0ZM0,0ZM0,0ZM0,0ZM0,0ZM0,0ZM0,0ZM0,0ZM0,0ZM0,0ZM0,0Z" transform="translate(-175 -156)"/></svg>
